<svg width="60" height="60" viewBox="0 0 60 60" fill="none" xmlns="http://www.w3.org/2000/svg">
<rect x="-2" y="2" width="56" height="56" rx="28" transform="matrix(-1 0 0 1 56 0)" stroke="#131313" stroke-width="4"/>
<path d="M39.2 31.06C39.7854 30.4738 39.7848 29.524 39.1986 28.9386L29.6463 19.399C29.0602 18.8137 28.1104 18.8143 27.525 19.4005C26.9396 19.9866 26.9402 20.9364 27.5264 21.5218L36.0174 30.0014L27.5377 38.4923C26.9523 39.0785 26.953 40.0283 27.5391 40.6137C28.1253 41.1991 29.0751 41.1984 29.6605 40.6122L39.2 31.06ZM22 30.0107L22.001 31.5107L38.1397 31.5L38.1387 30L38.1377 28.5L21.999 28.5107L22 30.0107Z" fill="black"/>
</svg>
