<svg width="60" height="60" viewBox="0 0 60 60" fill="none" xmlns="http://www.w3.org/2000/svg">
<rect x="2" y="2" width="56" height="56" rx="28" stroke="#131313" stroke-width="4"/>
<path d="M20.8 31.06C20.2146 30.4738 20.2152 29.524 20.8014 28.9386L30.3537 19.399C30.9398 18.8137 31.8896 18.8143 32.475 19.4005C33.0604 19.9866 33.0598 20.9364 32.4736 21.5218L23.9826 30.0014L32.4623 38.4923C33.0477 39.0785 33.047 40.0283 32.4609 40.6137C31.8747 41.1991 30.9249 41.1984 30.3395 40.6122L20.8 31.06ZM38 30.0107L37.999 31.5107L21.8603 31.5L21.8613 30L21.8623 28.5L38.001 28.5107L38 30.0107Z" fill="black"/>
</svg>
