<svg width="132" height="60" viewBox="0 0 132 60" fill="none" xmlns="http://www.w3.org/2000/svg">
<path d="M66 2C84.0071 2 100.213 5.3216 111.842 10.6074C123.651 15.9753 130 22.9823 130 30C130 37.0177 123.651 44.0247 111.842 49.3926C100.213 54.6784 84.0071 58 66 58C47.9929 58 31.787 54.6784 20.1582 49.3926C8.34901 44.0247 2 37.0177 2 30C2 22.9823 8.34901 15.9753 20.1582 10.6074C31.787 5.3216 47.9929 2 66 2Z" stroke="black" stroke-width="4"/>
<rect x="38" y="2" width="56" height="56" rx="28" stroke="black" stroke-width="4"/>
<path d="M66.772 38.86C61.54 38.86 57.652 34.948 57.652 30.1C57.652 25.228 61.54 21.34 66.772 21.34C70.348 21.34 72.748 23.14 73.972 24.58L71.548 26.74C70.564 25.756 69.172 24.628 66.772 24.628C63.676 24.628 61.3 27.028 61.3 30.1C61.3 33.148 63.676 35.548 66.772 35.548C69.172 35.548 70.612 34.444 71.644 33.388L74.092 35.548C72.796 37.06 70.348 38.86 66.772 38.86Z" fill="black"/>
</svg>
