<svg width="60" height="60" viewBox="0 0 60 60" fill="none" xmlns="http://www.w3.org/2000/svg">
<rect x="2" y="2" width="56" height="56" rx="28" stroke="black" stroke-width="4"/>
<path d="M30.772 38.86C25.54 38.86 21.652 34.948 21.652 30.1C21.652 25.228 25.54 21.34 30.772 21.34C34.348 21.34 36.748 23.14 37.972 24.58L35.548 26.74C34.564 25.756 33.172 24.628 30.772 24.628C27.676 24.628 25.3 27.028 25.3 30.1C25.3 33.148 27.676 35.548 30.772 35.548C33.172 35.548 34.612 34.444 35.644 33.388L38.092 35.548C36.796 37.06 34.348 38.86 30.772 38.86Z" fill="black"/>
</svg>
