<svg width="84" height="64" viewBox="0 0 84 64" fill="none" xmlns="http://www.w3.org/2000/svg">
<path d="M13.76 40H10.16V23.2H13.76V40ZM23.3139 40H19.7619V23.2H22.9539L31.1379 34H31.2339V23.2H34.7619V40H31.5939L23.3859 29.176H23.3139V40ZM44.3544 40H40.7544V23.2H52.9944V26.608H44.3544V30.448H51.0744V33.76H44.3544V40ZM65.1948 40.36C59.9628 40.36 56.0748 36.448 56.0748 31.6C56.0748 26.728 59.9628 22.84 65.1948 22.84C70.4028 22.84 74.3148 26.728 74.3148 31.6C74.3148 36.448 70.4028 40.36 65.1948 40.36ZM65.1948 37.048C68.2428 37.048 70.6428 34.648 70.6428 31.6C70.6428 28.528 68.2428 26.128 65.1948 26.128C62.1228 26.128 59.7228 28.528 59.7228 31.6C59.7228 34.648 62.1228 37.048 65.1948 37.048Z" fill="black"/>
<path d="M2 7V57C2 59.7614 4.23858 62 7 62H77C79.7614 62 82 59.7614 82 57V7C82 4.23858 79.7614 2 77 2H7C4.23858 2 2 4.23858 2 7Z" stroke="black" stroke-width="4"/>
</svg>
