<svg width="118" height="155" viewBox="0 0 118 155" fill="none" xmlns="http://www.w3.org/2000/svg">
<path d="M24.2964 43.7288C22.3978 47.1389 21.9429 50.8578 21.7716 52.3999C21.0411 58.9764 24.222 65.7804 27.9596 71.2783C30.2989 74.7192 33.0337 77.9039 35.6581 80.5541C33.7053 81.7516 32.1247 83.4388 30.9914 85.3632C29.0629 88.6379 28.3299 92.7196 29.1154 96.63C25.3644 101.706 23.5942 107.673 24.1173 112.42C23.2813 115.2 22.8299 118.58 23.0038 121.91C23.1933 125.535 24.1494 129.541 26.632 132.613C29.4403 136.089 33.4905 138.917 37.5848 140.745C41.195 142.357 45.2554 143.373 48.8732 143.072C53.2864 145.279 57.0773 146.545 60.8639 147.183C64.3786 147.775 67.7669 147.804 71.4233 147.653L72.3912 148.675L72.5984 148.883C74.7834 150.991 78.2822 151.439 80.9414 149.513C90.5538 142.549 97.2143 132.778 101.598 123.694C105.976 114.621 108.215 105.959 108.815 100.905C109.193 97.7145 107.102 95.1511 104.51 94.2703L103.244 93.8403C105.57 84.9439 104.841 77.4549 101.574 71.6082C97.916 65.0605 91.4382 61.221 84.2224 59.6945C80.4499 58.8965 77.184 59.0721 74.1561 60.1219C71.9798 60.8766 70.0616 62.0378 68.2788 63.3802C64.3641 61.1038 57.8232 56.1855 53.5594 49.077C47.6866 39.2859 40.3215 36.3693 36.0466 36.7137C29.9611 36.8495 26.3012 40.1278 24.2964 43.7288Z" fill="#FFC8BE" stroke="#9FFF98" stroke-width="6.97433"/>
<path d="M98.9479 96.0636C105.44 76.5885 96.4803 65.8503 83.4911 63.1025C77.0191 61.7334 73.0442 63.8231 68.672 67.5295C64.927 65.7966 56.0623 60.0389 50.5637 50.8716C45.0651 41.7044 38.71 39.9326 36.2197 40.1926C26.8633 40.332 25.5728 49.7865 25.2408 52.7756C24.0621 63.3869 35.592 76.476 42.5952 82.1729C34.9002 81.9916 30.5893 90.4757 32.9329 97.4159C28.623 102.504 26.9509 108.648 27.6844 112.714C25.9712 117.693 25.6562 125.85 29.3511 130.423C34.1391 136.349 43.6168 140.522 49.5138 139.484C58.6809 144.257 64.4013 144.541 72.8645 144.098L74.9291 146.277C75.9727 147.378 77.6636 147.587 78.8955 146.694C96.8809 133.664 104.248 109.772 105.348 100.504C105.506 99.1741 104.647 97.9995 103.378 97.5686L98.9479 96.0636Z" fill="#FFC8BE"/>
<path d="M82.6153 87.4126C82.0498 91.0794 78.9996 99.8266 74.516 103.798M98.948 96.0636C105.44 76.5885 96.4803 65.8503 83.4911 63.1025C77.0191 61.7334 73.0442 63.8231 68.672 67.5295M98.948 96.0636C97.8599 99.3275 96.3092 102.926 94.2291 106.902L98.948 96.0636ZM98.948 96.0636L103.378 97.5686C104.647 97.9995 105.506 99.1741 105.348 100.504C104.248 109.772 96.8809 133.664 78.8955 146.694C77.6636 147.587 75.9727 147.378 74.9291 146.277L72.8645 144.098M72.8645 144.098L78.3907 137.681M72.8645 144.098C64.4013 144.541 58.6809 144.257 49.5138 139.484M32.9329 97.4159C30.5893 90.4757 34.9002 81.9916 42.5952 82.1729M32.9329 97.4159C35.7873 103.362 42.2968 113.727 55.8412 116.196C59.7381 116.907 62.1665 117.241 65.0949 116.723M32.9329 97.4159C28.623 102.504 26.9509 108.648 27.6844 112.714M42.5952 82.1729L56.5993 90.8295M42.5952 82.1729C35.592 76.476 24.0621 63.3869 25.2408 52.7756C25.5728 49.7865 26.8633 40.332 36.2197 40.1926C38.71 39.9326 45.0651 41.7044 50.5637 50.8716C56.0623 60.0389 64.927 65.7966 68.672 67.5295M68.672 67.5295C64.2998 71.2358 61.1269 78.1774 58.8331 84.8634C56.0862 92.8701 54.3533 103.039 61.7013 107.189C66.3428 109.81 71.8251 106.181 74.516 103.798M74.516 103.798C74.7662 106.146 74.5794 108.104 74.0662 109.729M65.0949 116.723C69.0047 116.032 72.697 114.066 74.0662 109.729M65.0949 116.723C71.5085 129.043 62.0875 132.73 56.3537 132.468M74.0662 109.729C74.3998 112.331 72.2173 121.759 84.0356 126.88M27.6844 112.714C28.932 119.63 35.9614 124.927 40.4738 127.073C45.8486 129.63 52.3907 132.745 56.3537 132.468M27.6844 112.714C25.9712 117.693 25.6562 125.85 29.3511 130.423C34.1391 136.349 43.6168 140.522 49.5138 139.484M49.5138 139.484C54.2314 138.653 55.4994 134.419 56.3537 132.468" stroke="black" stroke-width="2.32478"/>
<path d="M20.3613 5.86803C22.1101 2.58778 26.9673 2.69721 28.5088 6.19615L31.8643 13.8143L39.3086 17.3085C42.7888 18.9421 42.7888 23.8916 39.3086 25.5253L31.8643 29.0184L28.5088 36.6376C26.9176 40.2494 21.7934 40.2494 20.2021 36.6376L16.8457 29.0184L9.40234 25.5253C5.92212 23.8916 5.92211 18.9421 9.40234 17.3085L16.8457 13.8143L20.2021 6.19615L20.3613 5.86803Z" fill="#FFC8BE" stroke="#9FFF98" stroke-width="6.97433"/>
<path d="M27.9775 16.5243C28.1932 17.0136 28.5785 17.4083 29.0625 17.6356L37.1182 21.4169L29.0625 25.1981C28.6388 25.397 28.2903 25.724 28.0654 26.1307L27.9775 26.3094L24.3555 34.5321L20.7334 26.3094C20.5178 25.8201 20.1325 25.4254 19.6484 25.1981L11.5918 21.4169L19.6484 17.6356C20.1325 17.4083 20.5178 17.0136 20.7334 16.5243L24.3555 8.30064L27.9775 16.5243Z" fill="#FAFF98" stroke="black" stroke-width="2.32478"/>
</svg>
