<svg width="113" height="48" viewBox="0 0 113 48" fill="none" xmlns="http://www.w3.org/2000/svg">
<path d="M99.1855 38.6204L109.07 22.625L55.0703 2.125L30.9583 7.93587L0.570312 19.625L5.17835 28.8149L9.78639 38.6204H99.1855Z" fill="#131313" stroke="#131313" stroke-width="0.239275"/>
<mask id="path-2-outside-1_187_135902" maskUnits="userSpaceOnUse" x="7.85742" y="21.8164" width="105" height="23" fill="black">
<rect fill="white" x="7.85742" y="21.8164" width="105" height="23"/>
<path d="M19.8312 41.0692C15.3443 41.0692 11.9528 37.6777 11.9528 33.4435C11.9528 29.2094 15.3443 25.8179 19.8312 25.8179C22.8436 25.8179 24.908 27.3767 25.9612 28.6407L24.1496 30.1995C23.307 29.2937 22.0431 28.2194 19.8312 28.2194C16.9242 28.2194 14.607 30.5365 14.607 33.4435C14.607 36.3506 16.9242 38.6677 19.8312 38.6677C21.6218 38.6677 23.0332 37.8462 23.6019 37.2142V35.1288H20.5053V32.938H26.214V38.2254C25.2661 39.4472 22.8436 41.0692 19.8312 41.0692ZM30.1002 40.8164H27.3828L33.2179 26.0707H36.1249L41.939 40.8164H39.1373L37.768 37.1932H31.4906L30.1002 40.8164ZM34.6082 28.9566L32.3753 34.876H36.8833L34.6504 28.9566H34.6082ZM53.9203 40.8164H44.2514V26.0707H46.8845V38.3939H53.9203V40.8164ZM66.037 40.8164H56.368V26.0707H59.0012V38.3939H66.037V40.8164ZM79.2912 40.8164H68.4847V26.0707H79.0805V28.4511H71.1179V32.0322H77.3953V34.3915H71.1179V38.436H79.2912V40.8164ZM90.8598 35.0445L94.1039 40.8164H91.1758L88.2477 35.4869H85.0037V40.8164H82.3705V26.0707H88.648C91.555 26.0707 93.5773 28.114 93.5773 30.7893C93.5773 32.7273 92.524 34.3072 90.8598 35.0445ZM88.6058 28.4511H85.0037V33.1065H88.6058C89.9751 33.1065 90.9441 32.1375 90.9441 30.7893C90.9441 29.4201 89.9751 28.4511 88.6058 28.4511ZM102.966 40.8164H100.333V35.5922L94.814 26.0707H97.8264L101.66 32.8537H101.745L105.536 26.0707H108.506L102.966 35.5922V40.8164Z"/>
</mask>
<path d="M19.8312 41.0692C15.3443 41.0692 11.9528 37.6777 11.9528 33.4435C11.9528 29.2094 15.3443 25.8179 19.8312 25.8179C22.8436 25.8179 24.908 27.3767 25.9612 28.6407L24.1496 30.1995C23.307 29.2937 22.0431 28.2194 19.8312 28.2194C16.9242 28.2194 14.607 30.5365 14.607 33.4435C14.607 36.3506 16.9242 38.6677 19.8312 38.6677C21.6218 38.6677 23.0332 37.8462 23.6019 37.2142V35.1288H20.5053V32.938H26.214V38.2254C25.2661 39.4472 22.8436 41.0692 19.8312 41.0692ZM30.1002 40.8164H27.3828L33.2179 26.0707H36.1249L41.939 40.8164H39.1373L37.768 37.1932H31.4906L30.1002 40.8164ZM34.6082 28.9566L32.3753 34.876H36.8833L34.6504 28.9566H34.6082ZM53.9203 40.8164H44.2514V26.0707H46.8845V38.3939H53.9203V40.8164ZM66.037 40.8164H56.368V26.0707H59.0012V38.3939H66.037V40.8164ZM79.2912 40.8164H68.4847V26.0707H79.0805V28.4511H71.1179V32.0322H77.3953V34.3915H71.1179V38.436H79.2912V40.8164ZM90.8598 35.0445L94.1039 40.8164H91.1758L88.2477 35.4869H85.0037V40.8164H82.3705V26.0707H88.648C91.555 26.0707 93.5773 28.114 93.5773 30.7893C93.5773 32.7273 92.524 34.3072 90.8598 35.0445ZM88.6058 28.4511H85.0037V33.1065H88.6058C89.9751 33.1065 90.9441 32.1375 90.9441 30.7893C90.9441 29.4201 89.9751 28.4511 88.6058 28.4511ZM102.966 40.8164H100.333V35.5922L94.814 26.0707H97.8264L101.66 32.8537H101.745L105.536 26.0707H108.506L102.966 35.5922V40.8164Z" fill="white"/>
<path d="M25.9612 28.6407L28.3022 31.3613C29.788 30.0828 29.9733 27.8488 28.7185 26.343L25.9612 28.6407ZM24.1496 30.1995L21.5217 32.6441C22.835 34.0558 25.0291 34.1777 26.4906 32.9201L24.1496 30.1995ZM23.6019 37.2142L26.2697 39.6152C26.8629 38.9562 27.1911 38.1009 27.1911 37.2142H23.6019ZM23.6019 35.1288H27.1911C27.1911 33.1466 25.5842 31.5396 23.6019 31.5396V35.1288ZM20.5053 35.1288H16.9162C16.9162 37.111 18.5231 38.7179 20.5053 38.7179V35.1288ZM20.5053 32.938V29.3489C18.5231 29.3489 16.9162 30.9558 16.9162 32.938H20.5053ZM26.214 32.938H29.8032C29.8032 30.9558 28.1963 29.3489 26.214 29.3489V32.938ZM26.214 38.2254L29.0497 40.4255C29.5381 39.7961 29.8032 39.022 29.8032 38.2254H26.214ZM19.8312 41.0692V37.4801C17.2494 37.4801 15.5419 35.6191 15.5419 33.4435H11.9528H8.36369C8.36369 39.7362 13.4393 44.6583 19.8312 44.6583V41.0692ZM11.9528 33.4435H15.5419C15.5419 31.268 17.2494 29.407 19.8312 29.407V25.8179V22.2288C13.4393 22.2288 8.36369 27.1509 8.36369 33.4435H11.9528ZM19.8312 25.8179V29.407C21.5143 29.407 22.6433 30.2655 23.204 30.9384L25.9612 28.6407L28.7185 26.343C27.1727 24.4879 24.1728 22.2288 19.8312 22.2288V25.8179ZM25.9612 28.6407L23.6203 25.9201L21.8086 27.4789L24.1496 30.1995L26.4906 32.9201L28.3022 31.3613L25.9612 28.6407ZM24.1496 30.1995L26.7775 27.7549C25.6081 26.4978 23.4603 24.6302 19.8312 24.6302V28.2194V31.8085C20.3176 31.8085 20.596 31.9171 20.7811 32.0184C21.0002 32.1383 21.224 32.3241 21.5217 32.6441L24.1496 30.1995ZM19.8312 28.2194V24.6302C14.942 24.6302 11.0179 28.5543 11.0179 33.4435H14.607H18.1962C18.1962 32.5188 18.9065 31.8085 19.8312 31.8085V28.2194ZM14.607 33.4435H11.0179C11.0179 38.3328 14.942 42.2569 19.8312 42.2569V38.6677V35.0786C18.9065 35.0786 18.1962 34.3683 18.1962 33.4435H14.607ZM19.8312 38.6677V42.2569C22.6113 42.2569 25.0018 41.024 26.2697 39.6152L23.6019 37.2142L20.9342 34.8132C21.0137 34.7248 21.042 34.7153 20.9854 34.7544C20.9374 34.7875 20.852 34.8389 20.732 34.8916C20.4896 34.998 20.1786 35.0786 19.8312 35.0786V38.6677ZM23.6019 37.2142H27.1911V35.1288H23.6019H20.0128V37.2142H23.6019ZM23.6019 35.1288V31.5396H20.5053V35.1288V38.7179H23.6019V35.1288ZM20.5053 35.1288H24.0945V32.938H20.5053H16.9162V35.1288H20.5053ZM20.5053 32.938V36.5271H26.214V32.938V29.3489H20.5053V32.938ZM26.214 32.938H22.6249V38.2254H26.214H29.8032V32.938H26.214ZM26.214 38.2254L23.3783 36.0252C23.283 36.148 22.8855 36.5433 22.1733 36.9045C21.4984 37.2468 20.6925 37.4801 19.8312 37.4801V41.0692V44.6583C24.0257 44.6583 27.468 42.4642 29.0497 40.4255L26.214 38.2254ZM30.1003 40.8164V44.4055C31.5864 44.4055 32.9188 43.4897 33.4512 42.1022L30.1003 40.8164ZM27.3828 40.8164L24.0455 39.4958C23.6081 40.601 23.7463 41.8511 24.4145 42.8341C25.0827 43.8171 26.1942 44.4055 27.3828 44.4055V40.8164ZM33.2179 26.0707V22.4816C31.7455 22.4816 30.4224 23.3809 29.8806 24.7501L33.2179 26.0707ZM36.1249 26.0707L39.4639 24.7542C38.9232 23.3829 37.599 22.4816 36.1249 22.4816V26.0707ZM41.939 40.8164V44.4055C43.1268 44.4055 44.2377 43.8179 44.906 42.8359C45.5744 41.854 45.7136 40.6049 45.2779 39.4999L41.939 40.8164ZM39.1373 40.8164L35.7799 42.0852C36.3076 43.4816 37.6445 44.4055 39.1373 44.4055V40.8164ZM37.768 37.1932L41.1254 35.9244C40.5977 34.528 39.2608 33.604 37.768 33.604V37.1932ZM31.4906 37.1932V33.604C30.0045 33.604 28.6721 34.5199 28.1397 35.9074L31.4906 37.1932ZM34.6082 28.9566V25.3675C33.1147 25.3675 31.7772 26.2924 31.2501 27.6899L34.6082 28.9566ZM32.3753 34.876L29.0172 33.6092C28.6012 34.7118 28.753 35.9483 29.4233 36.9175C30.0936 37.8867 31.1969 38.4651 32.3753 38.4651V34.876ZM36.8833 34.876V38.4651C38.0617 38.4651 39.165 37.8867 39.8353 36.9175C40.5055 35.9483 40.6573 34.7118 40.2414 33.6092L36.8833 34.876ZM34.6504 28.9566L38.0085 27.6899C37.4814 26.2924 36.1439 25.3675 34.6504 25.3675V28.9566ZM30.1003 40.8164V37.2273H27.3828V40.8164V44.4055H30.1003V40.8164ZM27.3828 40.8164L30.7202 42.137L36.5552 27.3913L33.2179 26.0707L29.8806 24.7501L24.0455 39.4958L27.3828 40.8164ZM33.2179 26.0707V29.6598H36.1249V26.0707V22.4816H33.2179V26.0707ZM36.1249 26.0707L32.786 27.3872L38.6 42.1329L41.939 40.8164L45.2779 39.4999L39.4639 24.7542L36.1249 26.0707ZM41.939 40.8164V37.2273H39.1373V40.8164V44.4055H41.939V40.8164ZM39.1373 40.8164L42.4947 39.5476L41.1254 35.9244L37.768 37.1932L34.4106 38.462L35.7799 42.0852L39.1373 40.8164ZM37.768 37.1932V33.604H31.4906V37.1932V40.7823H37.768V37.1932ZM31.4906 37.1932L28.1397 35.9074L26.7493 39.5306L30.1003 40.8164L33.4512 42.1022L34.8415 38.479L31.4906 37.1932ZM34.6082 28.9566L31.2501 27.6899L29.0172 33.6092L32.3753 34.876L35.7334 36.1428L37.9664 30.2234L34.6082 28.9566ZM32.3753 34.876V38.4651H36.8833V34.876V31.2869H32.3753V34.876ZM36.8833 34.876L40.2414 33.6092L38.0085 27.6899L34.6504 28.9566L31.2922 30.2234L33.5251 36.1428L36.8833 34.876ZM34.6504 28.9566V25.3675H34.6082V28.9566V32.5458H34.6504V28.9566ZM53.9203 40.8164V44.4055C55.9026 44.4055 57.5095 42.7986 57.5095 40.8164H53.9203ZM44.2514 40.8164H40.6622C40.6622 42.7986 42.2691 44.4055 44.2514 44.4055V40.8164ZM44.2514 26.0707V22.4816C42.2691 22.4816 40.6622 24.0885 40.6622 26.0707H44.2514ZM46.8845 26.0707H50.4737C50.4737 24.0885 48.8667 22.4816 46.8845 22.4816V26.0707ZM46.8845 38.3939H43.2954C43.2954 40.3761 44.9023 41.983 46.8845 41.983V38.3939ZM53.9203 38.3939H57.5095C57.5095 36.4117 55.9026 34.8048 53.9203 34.8048V38.3939ZM53.9203 40.8164V37.2273H44.2514V40.8164V44.4055H53.9203V40.8164ZM44.2514 40.8164H47.8405V26.0707H44.2514H40.6622V40.8164H44.2514ZM44.2514 26.0707V29.6598H46.8845V26.0707V22.4816H44.2514V26.0707ZM46.8845 26.0707H43.2954V38.3939H46.8845H50.4737V26.0707H46.8845ZM46.8845 38.3939V41.983H53.9203V38.3939V34.8048H46.8845V38.3939ZM53.9203 38.3939H50.3312V40.8164H53.9203H57.5095V38.3939H53.9203ZM66.037 40.8164V44.4055C68.0192 44.4055 69.6261 42.7986 69.6261 40.8164H66.037ZM56.368 40.8164H52.7789C52.7789 42.7986 54.3858 44.4055 56.368 44.4055V40.8164ZM56.368 26.0707V22.4816C54.3858 22.4816 52.7789 24.0885 52.7789 26.0707H56.368ZM59.0012 26.0707H62.5903C62.5903 24.0885 60.9834 22.4816 59.0012 22.4816V26.0707ZM59.0012 38.3939H55.4121C55.4121 40.3761 57.019 41.983 59.0012 41.983V38.3939ZM66.037 38.3939H69.6261C69.6261 36.4117 68.0192 34.8048 66.037 34.8048V38.3939ZM66.037 40.8164V37.2273H56.368V40.8164V44.4055H66.037V40.8164ZM56.368 40.8164H59.9572V26.0707H56.368H52.7789V40.8164H56.368ZM56.368 26.0707V29.6598H59.0012V26.0707V22.4816H56.368V26.0707ZM59.0012 26.0707H55.4121V38.3939H59.0012H62.5903V26.0707H59.0012ZM59.0012 38.3939V41.983H66.037V38.3939V34.8048H59.0012V38.3939ZM66.037 38.3939H62.4479V40.8164H66.037H69.6261V38.3939H66.037ZM79.2912 40.8164V44.4055C81.2734 44.4055 82.8803 42.7986 82.8803 40.8164H79.2912ZM68.4847 40.8164H64.8956C64.8956 42.7986 66.5025 44.4055 68.4847 44.4055V40.8164ZM68.4847 26.0707V22.4816C66.5025 22.4816 64.8956 24.0885 64.8956 26.0707H68.4847ZM79.0805 26.0707H82.6697C82.6697 24.0885 81.0628 22.4816 79.0805 22.4816V26.0707ZM79.0805 28.4511V32.0402C81.0628 32.0402 82.6697 30.4333 82.6697 28.4511H79.0805ZM71.1179 28.4511V24.8619C69.1356 24.8619 67.5287 26.4689 67.5287 28.4511H71.1179ZM71.1179 32.0322H67.5287C67.5287 34.0144 69.1356 35.6213 71.1179 35.6213V32.0322ZM77.3953 32.0322H80.9845C80.9845 30.05 79.3775 28.443 77.3953 28.443V32.0322ZM77.3953 34.3915V37.9806C79.3775 37.9806 80.9845 36.3737 80.9845 34.3915H77.3953ZM71.1179 34.3915V30.8024C69.1356 30.8024 67.5287 32.4093 67.5287 34.3915H71.1179ZM71.1179 38.436H67.5287C67.5287 40.4182 69.1356 42.0252 71.1179 42.0252V38.436ZM79.2912 38.436H82.8803C82.8803 36.4538 81.2734 34.8469 79.2912 34.8469V38.436ZM79.2912 40.8164V37.2273H68.4847V40.8164V44.4055H79.2912V40.8164ZM68.4847 40.8164H72.0738V26.0707H68.4847H64.8956V40.8164H68.4847ZM68.4847 26.0707V29.6598H79.0805V26.0707V22.4816H68.4847V26.0707ZM79.0805 26.0707H75.4914V28.4511H79.0805H82.6697V26.0707H79.0805ZM79.0805 28.4511V24.8619H71.1179V28.4511V32.0402H79.0805V28.4511ZM71.1179 28.4511H67.5287V32.0322H71.1179H74.707V28.4511H71.1179ZM71.1179 32.0322V35.6213H77.3953V32.0322V28.443H71.1179V32.0322ZM77.3953 32.0322H73.8062V34.3915H77.3953H80.9845V32.0322H77.3953ZM77.3953 34.3915V30.8024H71.1179V34.3915V37.9806H77.3953V34.3915ZM71.1179 34.3915H67.5287V38.436H71.1179H74.707V34.3915H71.1179ZM71.1179 38.436V42.0252H79.2912V38.436V34.8469H71.1179V38.436ZM79.2912 38.436H75.7021V40.8164H79.2912H82.8803V38.436H79.2912ZM90.8598 35.0445L89.406 31.763C88.4816 32.1726 87.7727 32.9531 87.4539 33.9126C87.135 34.8721 87.2356 35.9216 87.731 36.803L90.8598 35.0445ZM94.1039 40.8164V44.4055C95.3788 44.4055 96.5579 43.7293 97.2017 42.6289C97.8456 41.5285 97.8573 40.1692 97.2327 39.0579L94.1039 40.8164ZM91.1758 40.8164L88.0302 42.5446C88.6607 43.6923 89.8663 44.4055 91.1758 44.4055V40.8164ZM88.2477 35.4869L91.3934 33.7586C90.7628 32.6109 89.5572 31.8978 88.2477 31.8978V35.4869ZM85.0037 35.4869V31.8978C83.0215 31.8978 81.4146 33.5047 81.4146 35.4869H85.0037ZM85.0037 40.8164V44.4055C86.9859 44.4055 88.5928 42.7986 88.5928 40.8164H85.0037ZM82.3705 40.8164H78.7814C78.7814 42.7986 80.3883 44.4055 82.3705 44.4055V40.8164ZM82.3705 26.0707V22.4816C80.3883 22.4816 78.7814 24.0885 78.7814 26.0707H82.3705ZM85.0037 28.4511V24.8619C83.0215 24.8619 81.4146 26.4689 81.4146 28.4511H85.0037ZM85.0037 33.1065H81.4146C81.4146 35.0887 83.0215 36.6956 85.0037 36.6956V33.1065ZM90.8598 35.0445L87.731 36.803L90.9751 42.5749L94.1039 40.8164L97.2327 39.0579L93.9886 33.286L90.8598 35.0445ZM94.1039 40.8164V37.2273H91.1758V40.8164V44.4055H94.1039V40.8164ZM91.1758 40.8164L94.3214 39.0882L91.3934 33.7586L88.2477 35.4869L85.1021 37.2151L88.0302 42.5446L91.1758 40.8164ZM88.2477 35.4869V31.8978H85.0037V35.4869V39.076H88.2477V35.4869ZM85.0037 35.4869H81.4146V40.8164H85.0037H88.5928V35.4869H85.0037ZM85.0037 40.8164V37.2273H82.3705V40.8164V44.4055H85.0037V40.8164ZM82.3705 40.8164H85.9596V26.0707H82.3705H78.7814V40.8164H82.3705ZM82.3705 26.0707V29.6598H88.648V26.0707V22.4816H82.3705V26.0707ZM88.648 26.0707V29.6598C89.24 29.6598 89.552 29.8553 89.7002 29.9995C89.848 30.1433 89.9881 30.3832 89.9881 30.7893H93.5773H97.1664C97.1664 26.0389 93.443 22.4816 88.648 22.4816V26.0707ZM93.5773 30.7893H89.9881C89.9881 31.3255 89.7555 31.6082 89.406 31.763L90.8598 35.0445L92.3137 38.326C95.2925 37.0063 97.1664 34.1291 97.1664 30.7893H93.5773ZM88.6058 28.4511V24.8619H85.0037V28.4511V32.0402H88.6058V28.4511ZM85.0037 28.4511H81.4146V33.1065H85.0037H88.5928V28.4511H85.0037ZM85.0037 33.1065V36.6956H88.6058V33.1065V29.5174H85.0037V33.1065ZM88.6058 33.1065V36.6956C91.9357 36.6956 94.5332 34.1413 94.5332 30.7893H90.9441H87.355C87.355 30.5791 87.4449 30.2193 87.7587 29.9075C88.0718 29.5964 88.4216 29.5174 88.6058 29.5174V33.1065ZM90.9441 30.7893H94.5332C94.5332 29.2351 93.9689 27.7114 92.8263 26.5688C91.6838 25.4263 90.16 24.8619 88.6058 24.8619V28.4511V32.0402C88.4209 32.0402 88.0663 31.9604 87.7505 31.6446C87.4348 31.3289 87.355 30.9743 87.355 30.7893H90.9441ZM102.966 40.8164V44.4055C104.949 44.4055 106.555 42.7986 106.555 40.8164H102.966ZM100.333 40.8164H96.744C96.744 42.7986 98.3509 44.4055 100.333 44.4055V40.8164ZM100.333 35.5922H103.922C103.922 34.9601 103.755 34.3392 103.438 33.7923L100.333 35.5922ZM94.814 26.0707V22.4816C93.5306 22.4816 92.3449 23.1668 91.7042 24.2788C91.0635 25.3908 91.0652 26.7603 91.7088 27.8706L94.814 26.0707ZM97.8264 26.0707L100.951 24.3046C100.314 23.1781 99.1204 22.4816 97.8264 22.4816V26.0707ZM101.66 32.8537L98.5357 34.6198C99.1724 35.7463 100.366 36.4429 101.66 36.4429V32.8537ZM101.745 32.8537V36.4429C103.045 36.4429 104.243 35.7398 104.877 34.605L101.745 32.8537ZM105.536 26.0707V22.4816C104.236 22.4816 103.038 23.1846 102.403 24.3194L105.536 26.0707ZM108.506 26.0707L111.609 27.8757C112.255 26.7656 112.258 25.3948 111.618 24.2814C110.977 23.1679 109.791 22.4816 108.506 22.4816V26.0707ZM102.966 35.5922L99.8641 33.7872C99.5452 34.3353 99.3772 34.9581 99.3772 35.5922H102.966ZM102.966 40.8164V37.2273H100.333V40.8164V44.4055H102.966V40.8164ZM100.333 40.8164H103.922V35.5922H100.333H96.744V40.8164H100.333ZM100.333 35.5922L103.438 33.7923L97.9192 24.2708L94.814 26.0707L91.7088 27.8706L97.2279 37.3921L100.333 35.5922ZM94.814 26.0707V29.6598H97.8264V26.0707V22.4816H94.814V26.0707ZM97.8264 26.0707L94.7018 27.8367L98.5357 34.6198L101.66 32.8537L104.785 31.0877L100.951 24.3046L97.8264 26.0707ZM101.66 32.8537V36.4429H101.745V32.8537V29.2646H101.66V32.8537ZM101.745 32.8537L104.877 34.605L108.669 27.822L105.536 26.0707L102.403 24.3194L98.6116 31.1024L101.745 32.8537ZM105.536 26.0707V29.6598H108.506V26.0707V22.4816H105.536V26.0707ZM108.506 26.0707L105.404 24.2656L99.8641 33.7872L102.966 35.5922L106.068 37.3973L111.609 27.8757L108.506 26.0707ZM102.966 35.5922H99.3772V40.8164H102.966H106.555V35.5922H102.966Z" fill="#131313" mask="url(#path-2-outside-1_187_135902)"/>
<mask id="path-4-outside-2_187_135902" maskUnits="userSpaceOnUse" x="-0.275391" y="1" width="62" height="23" fill="black">
<rect fill="white" x="-0.275391" y="1" width="62" height="23"/>
<path d="M9.02314 20.2528C6.30571 20.2528 4.45196 19.0099 3.58829 17.9356L5.31564 16.2714C6.0108 17.0087 7.19045 17.8724 8.93887 17.8724C10.7084 17.8724 11.6774 16.9034 11.6774 15.8501C11.6774 12.8378 4.07279 14.5652 4.07279 9.1935C4.07279 6.87631 6.07399 5.0015 9.19166 5.0015C11.5088 5.0015 13.1941 6.0969 13.9735 6.96058L12.2672 8.6458C11.6984 8.11917 10.6452 7.36082 9.27592 7.36082C7.61176 7.36082 6.76915 8.22449 6.76915 9.1935C6.76915 12.2058 14.3527 10.4785 14.3527 15.8501C14.3527 18.2094 12.3304 20.2528 9.02314 20.2528ZM22.5648 20H19.9317V7.6768H15.5712V5.25428H26.9254V7.6768H22.5648V20ZM35.9112 20.2528C31.4243 20.2528 28.0328 16.8613 28.0328 12.6271C28.0328 8.39302 31.4243 5.0015 35.9112 5.0015C40.3981 5.0015 43.7896 8.39302 43.7896 12.6271C43.7896 16.8613 40.3981 20.2528 35.9112 20.2528ZM35.9112 17.8513C38.8182 17.8513 41.1354 15.5342 41.1354 12.6271C41.1354 9.72013 38.8182 7.40295 35.9112 7.40295C33.0042 7.40295 30.687 9.72013 30.687 12.6271C30.687 15.5342 33.0042 17.8513 35.9112 17.8513ZM49.5312 20H46.8981V5.25428H52.9438C55.8719 5.25428 57.9995 7.38188 57.9995 10.0782C57.9995 12.7746 55.8719 14.8811 52.9438 14.8811H49.5312V20ZM49.5312 7.63467V12.5008H52.9017C54.2709 12.5008 55.3663 11.4264 55.3663 10.0782C55.3663 8.709 54.2709 7.63467 52.9017 7.63467H49.5312Z"/>
</mask>
<path d="M9.02314 20.2528C6.30571 20.2528 4.45196 19.0099 3.58829 17.9356L5.31564 16.2714C6.0108 17.0087 7.19045 17.8724 8.93887 17.8724C10.7084 17.8724 11.6774 16.9034 11.6774 15.8501C11.6774 12.8378 4.07279 14.5652 4.07279 9.1935C4.07279 6.87631 6.07399 5.0015 9.19166 5.0015C11.5088 5.0015 13.1941 6.0969 13.9735 6.96058L12.2672 8.6458C11.6984 8.11917 10.6452 7.36082 9.27592 7.36082C7.61176 7.36082 6.76915 8.22449 6.76915 9.1935C6.76915 12.2058 14.3527 10.4785 14.3527 15.8501C14.3527 18.2094 12.3304 20.2528 9.02314 20.2528ZM22.5648 20H19.9317V7.6768H15.5712V5.25428H26.9254V7.6768H22.5648V20ZM35.9112 20.2528C31.4243 20.2528 28.0328 16.8613 28.0328 12.6271C28.0328 8.39302 31.4243 5.0015 35.9112 5.0015C40.3981 5.0015 43.7896 8.39302 43.7896 12.6271C43.7896 16.8613 40.3981 20.2528 35.9112 20.2528ZM35.9112 17.8513C38.8182 17.8513 41.1354 15.5342 41.1354 12.6271C41.1354 9.72013 38.8182 7.40295 35.9112 7.40295C33.0042 7.40295 30.687 9.72013 30.687 12.6271C30.687 15.5342 33.0042 17.8513 35.9112 17.8513ZM49.5312 20H46.8981V5.25428H52.9438C55.8719 5.25428 57.9995 7.38188 57.9995 10.0782C57.9995 12.7746 55.8719 14.8811 52.9438 14.8811H49.5312V20ZM49.5312 7.63467V12.5008H52.9017C54.2709 12.5008 55.3663 11.4264 55.3663 10.0782C55.3663 8.709 54.2709 7.63467 52.9017 7.63467H49.5312Z" fill="white"/>
<path d="M3.58829 17.9356L1.09811 15.3509C-0.239736 16.6398 -0.372957 18.7365 0.791007 20.1844L3.58829 17.9356ZM5.31564 16.2714L7.92705 13.8093C7.26944 13.1118 6.36016 12.7064 5.40183 12.6833C4.44351 12.6603 3.51581 13.0216 2.82547 13.6867L5.31564 16.2714ZM13.9735 6.96058L16.4956 9.51419C17.8612 8.16542 17.924 5.98094 16.638 4.55598L13.9735 6.96058ZM12.2672 8.6458L9.82871 11.2794C11.2375 12.5838 13.4233 12.5485 14.7893 11.1994L12.2672 8.6458ZM9.02314 20.2528V16.6637C7.43263 16.6637 6.59318 15.9451 6.38557 15.6868L3.58829 17.9356L0.791007 20.1844C2.31074 22.0748 5.17879 23.8419 9.02314 23.8419V20.2528ZM3.58829 17.9356L6.07846 20.5203L7.80582 18.8562L5.31564 16.2714L2.82547 13.6867L1.09811 15.3509L3.58829 17.9356ZM5.31564 16.2714L2.70423 18.7336C3.82071 19.9178 5.88132 21.4615 8.93887 21.4615V17.8724V14.2833C8.68091 14.2833 8.50715 14.2251 8.37092 14.1552C8.21601 14.0757 8.0654 13.956 7.92705 13.8093L5.31564 16.2714ZM8.93887 17.8724V21.4615C11.9327 21.4615 15.2665 19.5668 15.2665 15.8501H11.6774H8.08823C8.08823 15.2165 8.39715 14.7218 8.71797 14.4629C9.0187 14.2203 9.18141 14.2833 8.93887 14.2833V17.8724ZM11.6774 15.8501H15.2665C15.2665 14.6319 14.8523 13.5223 14.117 12.6328C13.4513 11.8276 12.6474 11.3522 12.0548 11.0649C11.0465 10.5762 9.53909 10.1729 8.98165 9.99227C8.0995 9.70637 7.77452 9.50946 7.65969 9.40629C7.64027 9.38885 7.66597 9.41009 7.6849 9.45313C7.70205 9.4921 7.66192 9.4328 7.66192 9.1935H4.07279H0.48366C0.48366 11.5284 1.3722 13.4072 2.86232 14.746C4.17335 15.9239 5.74951 16.4906 6.76851 16.8208C8.1122 17.2563 8.50593 17.3218 8.92353 17.5243C9.04382 17.5826 8.83401 17.5084 8.58426 17.2063C8.26483 16.8199 8.08823 16.3153 8.08823 15.8501H11.6774ZM4.07279 9.1935H7.66192C7.66192 9.12676 7.66989 9.06355 7.79088 8.96046C7.93281 8.83952 8.34668 8.59063 9.19166 8.59063V5.0015V1.41237C4.65209 1.41237 0.48366 4.37674 0.48366 9.1935H4.07279ZM9.19166 5.0015V8.59063C10.376 8.59063 11.1275 9.16413 11.3089 9.36517L13.9735 6.96058L16.638 4.55598C15.2606 3.02966 12.6416 1.41237 9.19166 1.41237V5.0015ZM13.9735 6.96058L11.4514 4.40696L9.74511 6.09219L12.2672 8.6458L14.7893 11.1994L16.4956 9.51419L13.9735 6.96058ZM12.2672 8.6458L14.7057 6.01224C13.8715 5.23983 11.9751 3.77169 9.27592 3.77169V7.36082V10.9499C9.28422 10.9499 9.33672 10.9504 9.4533 11.0093C9.57964 11.0732 9.71324 11.1724 9.82871 11.2794L12.2672 8.6458ZM9.27592 7.36082V3.77169C7.84512 3.77169 6.3568 4.14473 5.1478 5.11802C3.89828 6.12391 3.18002 7.60282 3.18002 9.1935H6.76915H10.3583C10.3583 9.81517 10.0613 10.3777 9.64915 10.7095C9.27749 11.0087 9.04256 10.9499 9.27592 10.9499V7.36082ZM6.76915 9.1935H3.18002C3.18002 10.409 3.59209 11.5173 4.32554 12.407C4.98985 13.2129 5.79265 13.6891 6.38493 13.977C7.39165 14.4664 8.89744 14.8704 9.45155 15.0505C10.3305 15.3361 10.6524 15.5322 10.7654 15.634C10.7841 15.6509 10.7585 15.6295 10.74 15.5871C10.7233 15.549 10.7635 15.6095 10.7635 15.8501H14.3527H17.9418C17.9418 13.5187 17.0573 11.6408 15.5701 10.3009C14.2612 9.12168 12.6872 8.55421 11.6703 8.22369C10.3285 7.78761 9.9384 7.72292 9.52321 7.52109C9.40454 7.46341 9.61488 7.53834 9.86446 7.8411C10.1832 8.22776 10.3583 8.73104 10.3583 9.1935H6.76915ZM14.3527 15.8501H10.7635C10.7635 15.9622 10.7295 16.0906 10.5619 16.2375C10.3877 16.3903 9.9339 16.6637 9.02314 16.6637V20.2528V23.8419C13.8547 23.8419 17.9418 20.6205 17.9418 15.8501H14.3527ZM22.5648 20V23.5891C24.5471 23.5891 26.154 21.9822 26.154 20H22.5648ZM19.9317 20H16.3425C16.3425 21.9822 17.9495 23.5891 19.9317 23.5891V20ZM19.9317 7.6768H23.5208C23.5208 5.69457 21.9139 4.08767 19.9317 4.08767V7.6768ZM15.5712 7.6768H11.982C11.982 9.65902 13.5889 11.2659 15.5712 11.2659V7.6768ZM15.5712 5.25428V1.66516C13.5889 1.66516 11.982 3.27206 11.982 5.25428H15.5712ZM26.9254 5.25428H30.5145C30.5145 3.27206 28.9076 1.66516 26.9254 1.66516V5.25428ZM26.9254 7.6768V11.2659C28.9076 11.2659 30.5145 9.65902 30.5145 7.6768H26.9254ZM22.5648 7.6768V4.08767C20.5826 4.08767 18.9757 5.69457 18.9757 7.6768H22.5648ZM22.5648 20V16.4109H19.9317V20V23.5891H22.5648V20ZM19.9317 20H23.5208V7.6768H19.9317H16.3425V20H19.9317ZM19.9317 7.6768V4.08767H15.5712V7.6768V11.2659H19.9317V7.6768ZM15.5712 7.6768H19.1603V5.25428H15.5712H11.982V7.6768H15.5712ZM15.5712 5.25428V8.84341H26.9254V5.25428V1.66516H15.5712V5.25428ZM26.9254 5.25428H23.3362V7.6768H26.9254H30.5145V5.25428H26.9254ZM26.9254 7.6768V4.08767H22.5648V7.6768V11.2659H26.9254V7.6768ZM22.5648 7.6768H18.9757V20H22.5648H26.154V7.6768H22.5648ZM35.9112 20.2528V16.6637C33.3293 16.6637 31.6219 14.8027 31.6219 12.6271H28.0328H24.4436C24.4436 18.9198 29.5192 23.8419 35.9112 23.8419V20.2528ZM28.0328 12.6271H31.6219C31.6219 10.4516 33.3293 8.59063 35.9112 8.59063V5.0015V1.41237C29.5192 1.41237 24.4436 6.33447 24.4436 12.6271H28.0328ZM35.9112 5.0015V8.59063C38.4931 8.59063 40.2005 10.4516 40.2005 12.6271H43.7896H47.3787C47.3787 6.33448 42.3031 1.41237 35.9112 1.41237V5.0015ZM43.7896 12.6271H40.2005C40.2005 14.8027 38.4931 16.6637 35.9112 16.6637V20.2528V23.8419C42.3031 23.8419 47.3787 18.9198 47.3787 12.6271H43.7896ZM35.9112 17.8513V21.4405C40.8004 21.4405 44.7245 17.5164 44.7245 12.6271H41.1354H37.5463C37.5463 13.5519 36.836 14.2622 35.9112 14.2622V17.8513ZM41.1354 12.6271H44.7245C44.7245 7.73791 40.8004 3.81382 35.9112 3.81382V7.40295V10.9921C36.836 10.9921 37.5463 11.7024 37.5463 12.6271H41.1354ZM35.9112 7.40295V3.81382C31.022 3.81382 27.0979 7.73791 27.0979 12.6271H30.687H34.2761C34.2761 11.7024 34.9864 10.9921 35.9112 10.9921V7.40295ZM30.687 12.6271H27.0979C27.0979 17.5164 31.022 21.4405 35.9112 21.4405V17.8513V14.2622C34.9864 14.2622 34.2761 13.5519 34.2761 12.6271H30.687ZM49.5312 20V23.5891C51.5134 23.5891 53.1204 21.9822 53.1204 20H49.5312ZM46.8981 20H43.3089C43.3089 21.9822 44.9158 23.5891 46.8981 23.5891V20ZM46.8981 5.25428V1.66516C44.9158 1.66516 43.3089 3.27206 43.3089 5.25428H46.8981ZM49.5312 14.8811V11.292C47.549 11.292 45.9421 12.8989 45.9421 14.8811H49.5312ZM49.5312 7.63467V4.04554C47.549 4.04554 45.9421 5.65244 45.9421 7.63467H49.5312ZM49.5312 12.5008H45.9421C45.9421 14.483 47.549 16.0899 49.5312 16.0899V12.5008ZM49.5312 20V16.4109H46.8981V20V23.5891H49.5312V20ZM46.8981 20H50.4872V5.25428H46.8981H43.3089V20H46.8981ZM46.8981 5.25428V8.84341H52.9438V5.25428V1.66516H46.8981V5.25428ZM52.9438 5.25428V8.84341C53.5185 8.84341 53.8749 9.04189 54.0737 9.23428C54.2727 9.42685 54.4104 9.70205 54.4104 10.0782H57.9995H61.5886C61.5886 5.28964 57.7423 1.66516 52.9438 1.66516V5.25428ZM57.9995 10.0782H54.4104C54.4104 10.4522 54.2747 10.7183 54.0816 10.9041C53.8867 11.0915 53.529 11.292 52.9438 11.292V14.8811V18.4703C57.7213 18.4703 61.5886 14.887 61.5886 10.0782H57.9995ZM52.9438 14.8811V11.292H49.5312V14.8811V18.4703H52.9438V14.8811ZM49.5312 14.8811H45.9421V20H49.5312H53.1204V14.8811H49.5312ZM49.5312 7.63467H45.9421V12.5008H49.5312H53.1204V7.63467H49.5312ZM49.5312 12.5008V16.0899H52.9017V12.5008V8.91162H49.5312V12.5008ZM52.9017 12.5008V16.0899C56.1923 16.0899 58.9554 13.469 58.9554 10.0782H55.3663H51.7772C51.7772 9.38387 52.3496 8.91162 52.9017 8.91162V12.5008ZM55.3663 10.0782H58.9554C58.9554 6.68661 56.2127 4.04554 52.9017 4.04554V7.63467V11.2238C52.3291 11.2238 51.7772 10.7314 51.7772 10.0782H55.3663ZM52.9017 7.63467V4.04554H49.5312V7.63467V11.2238H52.9017V7.63467Z" fill="#131313" mask="url(#path-4-outside-2_187_135902)"/>
</svg>
